PathFileType	4	(X/Y/Z)	E:\Qualisys_Data\Carbon_Farble_Plate\Data\Amateur_Runner\S1\T1\S1T1V22_c3d.trc
DataRate	CameraRate	NumFrames	NumMarkers	Units	OrigDataRate	OrigDataStartFrame	OrigNumFrames
200.000000	200.000000	4	39	mm	200.000000	173	278
Frame#	Time	LSHO			RSHO			LICST			RICST			LASIS			LHEEL			RASIS			LTROC			RTROC			SACR			LTH1			LSK4			LTH2			LTH3			RHM5			LSK2			LTH4			RTH1			LTOE			RTH2			RTH3			RTH4			LLEP			RLEP			LSK1			LSK3			RSK1			LHM5			RSK2			LFT1			RSK3			RSK4			LLME			RLME			RTOE			RHEEL			RFT1			RFT2			LFT2			
		X1	Y1	Z1	X2	Y2	Z2	X3	Y3	Z3	X4	Y4	Z4	X5	Y5	Z5	X6	Y6	Z6	X7	Y7	Z7	X8	Y8	Z8	X9	Y9	Z9	X10	Y10	Z10	X11	Y11	Z11	X12	Y12	Z12	X13	Y13	Z13	X14	Y14	Z14	X15	Y15	Z15	X16	Y16	Z16	X17	Y17	Z17	X18	Y18	Z18	X19	Y19	Z19	X20	Y20	Z20	X21	Y21	Z21	X22	Y22	Z22	X23	Y23	Z23	X24	Y24	Z24	X25	Y25	Z25	X26	Y26	Z26	X27	Y27	Z27	X28	Y28	Z28	X29	Y29	Z29	X30	Y30	Z30	X31	Y31	Z31	X32	Y32	Z32	X33	Y33	Z33	X34	Y34	Z34	X35	Y35	Z35	X36	Y36	Z36	X37	Y37	Z37	X38	Y38	Z38	X39	Y39	Z39	

174	0.865	867.2739868164062	1515.956787109375	-453.1015319824219	930.2681274414062	1492.832153320312	-134.1844940185547	876.9024658203125	1045.605712890625	-429.6614685058594	886.2146606445312	1044.319458007812	-132.1456604003906	918.6566772460938	1003.824401855469	-403.8634643554688	784.5449829101562	277.6372680664062	-334.7455444335938	918.9447631835938	992.1921997070312	-140.5113677978516	833.3836669921875	923.858642578125	-456.3778076171875	790.2012939453125	922.9484252929688	-119.1057510375977	764.5250854492188	1065.20068359375	-274.4408874511719	1020.376342773438	856.9679565429688	-416.3472900390625	882.8103637695312	406.2251892089844	-369.321533203125	963.4794921875	806.6969604492188	-455.9612426757812	1082.727416992188	773.5891723632812	-406.8274230957031	505.2468566894531	59.00950622558594	-147.5325927734375	946.2702026367188	480.4393615722656	-406.40087890625	1018.724914550781	724.0254516601562	-435.2491760253906	872.1679077148438	767.2158813476562	-139.2680511474609	1006.788146972656	150.2198181152344	-339.5939025878906	801.2590942382812	790.7651977539062	-109.0680160522461	835.3687133789062	673.2720947265625	-151.9363861083984	762.2882080078125	699.7232055664062	-127.2302551269531	1112.472290039062	610.1212158203125	-397.5732421875	720.8115234375	533.6151733398438	-168.9313049316406	1009.690490722656	424.8014526367188	-395.6521301269531	939.8695678710938	352.390380859375	-390.3605346679688	611.49658203125	376.2869873046875	-150.4797668457031	940.9985961914062	164.8904266357422	-397.9517211914062	543.6140747070312	420.8362426757812	-161.8524475097656	782.8292846679688	251.9411010742188	-304.63037109375	558.8358764648438	290.7257385253906	-160.2436370849609	494.1369934082031	335.7800598144531	-185.4299468994141	842.7263793945312	275.1802978515625	-382.722412109375	456.5721740722656	197.4418792724609	-162.9046783447266	574.1051635742188	49.86619567871094	-229.7331085205078	378.7990417480469	193.8965606689453	-209.9878692626953	374.3313903808594	165.5895233154297	-242.8552703857422	367.9697265625	169.2459259033203	-185.4988555908203	775.5279541015625	249.4087982177734	-359.1277160644531
175	0.87	887.1136474609375	1518.303833007812	-453.2091369628906	952.3770751953124	1496.480834960938	-134.9459838867188	898.49560546875	1048.426025390625	-429.720947265625	910.1749267578124	1046.722778320312	-132.5989074707031	941.6707763671876	1006.272094726562	-404.1636657714844	822.7891235351562	264.2014770507812	-334.1361389160156	941.9730834960938	994.3303833007812	-141.1051330566406	856.7987670898438	927.5569458007812	-457.1160278320312	812.2193603515625	926.5247192382812	-119.0665054321289	787.9197998046875	1068.56591796875	-274.687255859375	1043.381469726562	860.7803955078125	-415.1017761230469	914.3803100585938	397.5784606933594	-368.2405090332031	986.6301879882812	810.5652465820312	-455.1414184570312	1105.778198242188	777.5051879882812	-405.2781982421875	507.6415405273438	60.62163543701172	-147.1873016357422	973.5923461914062	474.9237976074219	-406.3489379882812	1041.590698242188	727.5477905273438	-433.9911499023438	891.2005615234375	769.3640747070312	-138.8653259277344	1051.113525390625	147.8573455810547	-339.594970703125	820.5831298828125	794.7333984375	-108.7675704956055	852.6632080078125	676.1328125	-151.1469421386719	779.9314575195312	704.5862426757812	-126.5141220092773	1134.579711914062	613.0107421875	-396.712158203125	734.1559448242188	538.9403686523438	-167.4856719970703	1040.162841796875	422.7638549804688	-395.0145263671875	974.1727294921876	346.5954895019531	-389.2844848632812	623.3329467773438	383.1696472167969	-148.2440795898438	984.9929809570312	159.8063812255859	-397.8910217285156	556.0391845703125	427.7493896484375	-161.1551666259766	822.133544921875	238.3678894042969	-303.7793884277344	570.7171020507812	297.8788146972656	-158.2523651123047	506.5346984863281	342.363037109375	-184.6926879882812	881.0564575195312	264.9872436523438	-381.77783203125	468.165771484375	204.0259857177734	-161.9176483154297	576.4113159179688	49.60198593139648	-228.9292297363281	391.5584411621094	204.8187713623047	-210.2190856933594	386.0596618652344	177.6803741455078	-243.8272552490234	379.0189514160156	180.7089996337891	-185.95849609375	815.057861328125	235.6040649414062	-358.4907836914062
176	0.875	906.8275146484376	1520.392700195312	-453.3420104980469	974.2211303710938	1499.96728515625	-136.087158203125	922.44287109375	1051.99267578125	-429.6893005371094	933.7554321289062	1048.576904296875	-133.0937347412109	965.05224609375	1008.853088378906	-404.6472778320312	860.98974609375	250.750244140625	-333.160888671875	964.9110717773438	996.107177734375	-141.4586486816406	879.99951171875	931.2575073242188	-457.4917602539062	834.4122924804688	930.277099609375	-119.4791946411133	811.5577392578125	1072.2978515625	-275.08154296875	1066.158935546875	864.078369140625	-413.9612731933594	945.951904296875	388.9161682128906	-367.7260437011719	1009.442810058594	814.0377807617188	-454.1083374023438	1128.231323242188	780.8613891601562	-404.2495727539062	510.718017578125	63.41866683959961	-146.8103485107422	1001.367370605469	469.390625	-406.6447448730469	1064.0419921875	731.2088012695312	-432.9612426757812	910.2205810546876	771.4728393554688	-137.9064025878906	1095.399658203125	146.2378845214844	-339.6369323730469	840.0084228515625	798.2496948242188	-108.3579254150391	869.5726318359375	678.8385009765625	-150.2783966064453	798.1118774414062	709.0615234375	-125.5114898681641	1156.081298828125	615.5077514648438	-395.9308166503906	748.5923461914062	544.6806640625	-166.3182373046875	1070.226318359375	420.8723754882812	-394.5405578613281	1008.385925292969	341.0592346191406	-388.7037658691406	635.930908203125	389.7148742675781	-146.5613250732422	1028.649169921875	155.3620910644531	-397.4793701171875	568.8663330078125	434.4140014648438	-160.2524261474609	861.9721069335938	224.4723205566406	-303.227783203125	583.1640625	303.903076171875	-155.8856506347656	519.2597045898438	348.5786437988281	-184.1281433105469	919.6528930664062	254.8661804199219	-381.1325988769531	480.2598571777344	209.9130706787109	-160.3824005126953	579.7376708984375	48.69425964355469	-228.1551208496094	405.2697448730469	216.0720825195312	-210.4786224365234	399.4067993164062	190.1296539306641	-244.3314971923828	390.9601440429688	192.4490051269531	-187.3883666992188	855.0887451171875	221.6575012207031	-357.5916748046875
177	0.88	926.9192504882812	1522.267456054688	-453.4407958984375	996.126953125	1503.278930664062	-137.045166015625	947.5044555664062	1054.913940429688	-428.3556823730469	957.0834350585938	1050.865844726562	-133.3075256347656	988.4592895507812	1011.640075683594	-405.0756225585938	900.2699584960938	237.7577056884766	-332.1532287597656	988.0198974609376	997.9288330078124	-142.0511322021484	902.73681640625	934.3947143554688	-457.7257690429688	856.4168090820312	933.8109130859376	-119.3225860595703	834.57373046875	1075.471801757812	-275.217529296875	1087.925170898438	867.2086181640625	-413.6248779296875	977.6641845703124	380.6354064941406	-367.1022338867188	1031.396240234375	817.0404052734375	-453.2733459472656	1150.040283203125	783.7262573242188	-403.1053771972656	514.7771606445312	66.61551666259766	-146.3019866943359	1028.567260742188	462.908447265625	-406.5935668945312	1085.415893554688	734.004638671875	-431.2831726074219	929.5430908203124	773.6566162109375	-136.7141876220703	1139.809814453125	145.4219512939453	-340.153076171875	859.7884521484375	802.0859375	-108.0279006958008	887.2688598632812	681.8306274414062	-148.9231414794922	815.821044921875	713.3861083984375	-125.5016250610352	1177.412231445312	617.685791015625	-395.0493774414062	763.2703247070312	549.2764282226562	-165.4485168457031	1100.039794921875	418.4752502441406	-394.0559997558594	1042.202880859375	335.7312316894531	-387.9748840332031	649.3807983398438	395.9326171875	-144.800537109375	1072.254638671875	151.6906433105469	-397.7926330566406	582.3037109375	440.700927734375	-159.3550262451172	901.9998168945312	211.3279418945312	-302.0820617675781	596.1312255859375	310.5932312011719	-154.1571655273438	532.7669677734375	355.2023620605469	-183.0151672363281	958.01708984375	244.9255981445312	-380.2798767089844	493.1157531738281	216.4514617919922	-159.0912170410156	583.0496215820312	47.38565063476562	-227.4327697753906	420.46240234375	227.3000946044922	-210.3078918457031	413.7782897949219	202.6017303466797	-244.8508758544922	404.5102844238281	204.9305267333984	-187.6163482666016	895.5155639648438	208.4928588867188	-356.9862365722656
